<?xml version="1.0" ?><svg viewBox="0 0 64 64" xmlns="http://www.w3.org/2000/svg"><title/><g id="Icons"><path d="M19.481,41.52a1,1,0,0,1-.817-.423,15.64,15.64,0,0,1-2.736-7.02,14.643,14.643,0,0,1,0-4.181,15.584,15.584,0,0,1,3.712-8.25,1,1,0,1,1,1.512,1.308,13.622,13.622,0,0,0-3.244,7.221A11.725,11.725,0,0,0,17.78,32a11.587,11.587,0,0,0,.128,1.8A13.693,13.693,0,0,0,20.3,39.943a1,1,0,0,1-.815,1.577Z" style="fill:#727172"/><path d="M22.331,21.42a1,1,0,0,1-.632-1.775,16.153,16.153,0,0,1,8.228-3.507,15.76,15.76,0,0,1,4.162,0A16.224,16.224,0,0,1,41.021,18.7a1,1,0,1,1-1.1,1.67,14.218,14.218,0,0,0-6.089-2.242,13.575,13.575,0,0,0-3.641,0A14.188,14.188,0,0,0,22.961,21.2.988.988,0,0,1,22.331,21.42Z" style="fill:#727172"/><path d="M43.6,42.7a1,1,0,0,1-.756-1.654,13.622,13.622,0,0,0,3.244-7.221A11.725,11.725,0,0,0,46.22,32a11.587,11.587,0,0,0-.128-1.8A13.693,13.693,0,0,0,43.7,24.057,1,1,0,1,1,45.336,22.9a15.64,15.64,0,0,1,2.736,7.02,14.643,14.643,0,0,1,0,4.181,15.584,15.584,0,0,1-3.712,8.25A.994.994,0,0,1,43.6,42.7Z" style="fill:#727172"/><path d="M32,48a15.033,15.033,0,0,1-2.089-.14,16.224,16.224,0,0,1-6.932-2.555,1,1,0,0,1,1.1-1.67,14.218,14.218,0,0,0,6.089,2.242,13.575,13.575,0,0,0,3.641,0,14.188,14.188,0,0,0,7.228-3.075,1,1,0,0,1,1.262,1.55,16.153,16.153,0,0,1-8.228,3.507A14.945,14.945,0,0,1,32,48Z" style="fill:#727172"/><path d="M10,36a1,1,0,0,1-.8-.4,6,6,0,0,1-.008-7.195,1,1,0,0,1,1.068-.372,29.5,29.5,0,0,0,5.8.967c.3.019.6.039.889.048a1,1,0,0,1,.966,1.033.985.985,0,0,1-1.032.966c-.31-.01-.631-.03-.951-.051a31.453,31.453,0,0,1-5.479-.847A3.992,3.992,0,0,0,10,32a4.064,4.064,0,0,0,.452,1.85A31.525,31.525,0,0,1,15.936,33c.32-.021.641-.041.951-.051a.973.973,0,0,1,1.032.966,1,1,0,0,1-.966,1.033c-.29.009-.589.029-.889.048a29.5,29.5,0,0,0-5.8.967A.983.983,0,0,1,10,36Z" style="fill:#727172"/><path d="M54,36a.983.983,0,0,1-.262-.035,29.5,29.5,0,0,0-5.8-.967c-.3-.019-.6-.039-.889-.048a1,1,0,0,1-.966-1.033.978.978,0,0,1,1.032-.966c.31.01.631.03.951.051a31.525,31.525,0,0,1,5.484.848A4.064,4.064,0,0,0,54,32a3.992,3.992,0,0,0-.457-1.849A31.453,31.453,0,0,1,48.064,31c-.32.021-.641.041-.951.051a.99.99,0,0,1-1.032-.966,1,1,0,0,1,.966-1.033c.29-.009.589-.029.889-.048a29.5,29.5,0,0,0,5.8-.967,1,1,0,0,1,1.068.372A6,6,0,0,1,54.8,35.6,1,1,0,0,1,54,36Z" style="fill:#727172"/><path d="M33.95,18.13a1,1,0,0,1-1-1c0-.395.021-.79.053-1.206a31.383,31.383,0,0,1,.846-5.467A3.992,3.992,0,0,0,32,10a4.064,4.064,0,0,0-1.85.452A31.525,31.525,0,0,1,31,15.936c.031.4.052.8.052,1.194a1,1,0,0,1-2,0c0-.345-.019-.69-.047-1.054a29.545,29.545,0,0,0-.968-5.814A1,1,0,0,1,28.4,9.2a6,6,0,0,1,7.2-.008,1,1,0,0,1,.372,1.068,29.5,29.5,0,0,0-.967,5.8c-.029.376-.048.721-.048,1.066A1,1,0,0,1,33.95,18.13Z" style="fill:#727172"/><path d="M32,56a6.029,6.029,0,0,1-3.6-1.2,1,1,0,0,1-.363-1.06,29.5,29.5,0,0,0,.967-5.8c.029-.376.048-.721.048-1.066a1,1,0,0,1,2,0c0,.4-.021.79-.053,1.206a31.441,31.441,0,0,1-.847,5.472A4.064,4.064,0,0,0,32,54a3.992,3.992,0,0,0,1.849-.457A31.453,31.453,0,0,1,33,48.064c-.031-.4-.052-.8-.052-1.194a1,1,0,1,1,2,0c0,.345.019.69.047,1.054a29.545,29.545,0,0,0,.968,5.814,1,1,0,0,1-.372,1.068A6.036,6.036,0,0,1,32,56Z" style="fill:#727172"/><path d="M23,27a1,1,0,0,1-.895-.552,14.276,14.276,0,0,0-9.347-7.477,1,1,0,0,1-.684-1.352,10.2,10.2,0,0,1,5.544-5.544,1,1,0,0,1,1.352.684,14.276,14.276,0,0,0,7.477,9.347,1,1,0,0,1-.9,1.788,16.272,16.272,0,0,1-8.181-9.471,8.22,8.22,0,0,0-2.948,2.948,16.272,16.272,0,0,1,9.471,8.181A1,1,0,0,1,23,27Z" style="fill:#727172"/><path d="M46,52a1,1,0,0,1-.971-.759,14.276,14.276,0,0,0-7.477-9.347,1,1,0,0,1,.9-1.788,16.272,16.272,0,0,1,8.181,9.471,8.22,8.22,0,0,0,2.948-2.948,16.272,16.272,0,0,1-9.471-8.181,1,1,0,1,1,1.788-.9,14.276,14.276,0,0,0,9.347,7.477,1,1,0,0,1,.684,1.352,10.2,10.2,0,0,1-5.544,5.544A1.01,1.01,0,0,1,46,52Z" style="fill:#727172"/><path d="M38,36a3.966,3.966,0,0,1-3.828-2.844,1,1,0,1,1,1.916-.572A1.978,1.978,0,0,0,38,34a2,2,0,0,0,2-2,1.978,1.978,0,0,0-1.416-1.912,1,1,0,1,1,.572-1.916A4,4,0,0,1,38,36Z" style="fill:#727172"/><path d="M25.13,35.871a.982.982,0,0,1-.286-.043,4,4,0,1,1,4.984-4.984,1,1,0,1,1-1.916.572A1.978,1.978,0,0,0,26,30a2,2,0,0,0-2,2,1.978,1.978,0,0,0,1.416,1.912,1,1,0,0,1-.286,1.959Z" style="fill:#727172"/><path d="M33,28a3,3,0,1,1,3-3,1,1,0,0,1-2,0,1,1,0,1,0-1,1,1,1,0,0,1,0,2Z" style="fill:#727172"/><path d="M31,42a3,3,0,0,1-3-3,1,1,0,0,1,2,0,1,1,0,1,0,1-1,1,1,0,0,1,0-2,3,3,0,0,1,0,6Z" style="fill:#727172"/><path d="M32,64A32,32,0,1,1,64,32,32.036,32.036,0,0,1,32,64ZM32,2A30,30,0,1,0,62,32,30.034,30.034,0,0,0,32,2Z" style="fill:#727172"/><path d="M32,60a28,28,0,0,1-17.6-6.253,1,1,0,0,1-.076-1.484l37.94-37.94a.982.982,0,0,1,.759-.292,1,1,0,0,1,.725.368A27.973,27.973,0,0,1,32,60ZM16.538,52.876A25.973,25.973,0,0,0,52.876,16.538Z" style="fill:#727172"/><path d="M11.03,49.97h-.052a1,1,0,0,1-.725-.368A27.973,27.973,0,0,1,49.6,10.253a1,1,0,0,1,.076,1.484l-37.94,37.94A1,1,0,0,1,11.03,49.97ZM32,6A25.973,25.973,0,0,0,11.124,47.462L47.462,11.124A26,26,0,0,0,32,6Z" style="fill:#727172"/></g></svg>